<svg width="165" height="167" viewBox="0 0 165 167" fill="none" xmlns="http://www.w3.org/2000/svg">
<path d="M147.321 0H17.6786C7.91853 0 0 8.01451 0 17.8929V149.107C0 158.985 7.91853 167 17.6786 167H147.321C157.081 167 165 158.985 165 149.107V17.8929C165 8.01451 157.081 0 147.321 0ZM46.7746 131.401C44.7489 134.979 40.2187 136.172 36.7199 134.122C33.1842 132.072 32.0056 127.487 34.0313 123.945L39.298 114.738C45.2277 112.911 50.0893 114.328 53.8828 118.988L46.7746 131.401ZM97.9319 111.308H30.9375C26.8862 111.308 23.5714 107.954 23.5714 103.853C23.5714 99.7527 26.8862 96.3978 30.9375 96.3978H49.721L73.808 54.2004L66.2578 41.0045C64.2321 37.4259 65.4475 32.8781 68.9464 30.8279C72.4821 28.7777 76.9754 30.0078 79.0011 33.5491L82.279 39.2897L85.5569 33.5491C87.5826 29.9705 92.1127 28.7777 95.6116 30.8279C99.1473 32.8781 100.326 37.4632 98.3002 41.0045L66.6998 96.3978H89.5714C97.0112 96.3978 101.173 105.232 97.9319 111.308ZM134.062 111.308H123.382L130.6 123.945C132.626 127.524 131.411 132.072 127.912 134.122C124.376 136.172 119.883 134.942 117.857 131.401C105.74 110.19 96.6797 94.2357 90.6027 83.6491C84.452 72.8388 88.8348 62.0286 93.2176 58.3755C98.0424 66.8373 105.261 79.5114 114.911 96.3978H134.062C138.114 96.3978 141.429 99.7527 141.429 103.853C141.429 107.991 138.114 111.308 134.062 111.308Z" fill="white"/>
</svg>
