<svg width="44" height="32" viewBox="0 0 44 32" fill="none" xmlns="http://www.w3.org/2000/svg">
<path d="M37.9009 10.5391V7.92593H12.7444V10.5391H37.9009ZM37.9009 20.9919V14.4589H12.7444V20.9919H37.9009ZM37.9009 5.31274C38.854 5.31274 39.7681 5.58806 40.4421 6.07813C41.1161 6.5682 41.4947 7.23287 41.4947 7.92593V20.9919C41.4947 21.6849 41.1161 22.3496 40.4421 22.8397C39.7681 23.3297 38.854 23.605 37.9009 23.605H12.7444C11.7912 23.605 10.8771 23.3297 10.2032 22.8397C9.52922 22.3496 9.15059 21.6849 9.15059 20.9919V7.92593C9.15059 6.47561 10.7498 5.31274 12.7444 5.31274H37.9009ZM5.5568 26.2182H32.5102V28.8314H5.5568C4.60366 28.8314 3.68957 28.5561 3.0156 28.066C2.34164 27.576 1.96301 26.9113 1.96301 26.2182V11.8457H5.5568V26.2182Z" fill="#160A5B"/>
</svg>
