<svg width="50" height="50" viewBox="0 0 50 50" fill="none" xmlns="http://www.w3.org/2000/svg">
<path d="M22.9165 33.3335C22.9165 33.9238 23.1165 34.4189 23.5165 34.8189C23.9165 35.2189 24.411 35.4182 24.9998 35.4168C25.5901 35.4168 26.0853 35.2259 26.4853 34.8439C26.8853 34.462 27.0846 33.9759 27.0832 33.3856V27.0835H30.8332C31.3193 27.0835 31.6408 26.8661 31.7978 26.4314C31.9547 25.9967 31.8762 25.6238 31.5623 25.3127L25.729 19.4793C25.5207 19.271 25.2776 19.1668 24.9998 19.1668C24.7221 19.1668 24.479 19.271 24.2707 19.4793L18.4373 25.3127C18.1248 25.6252 18.0464 25.9981 18.2019 26.4314C18.3575 26.8647 18.679 27.0821 19.1665 27.0835H22.9165V33.3335ZM8.33317 41.6668C7.18734 41.6668 6.20609 41.2585 5.38942 40.4418C4.57276 39.6252 4.16512 38.6446 4.16651 37.5002V12.5002C4.16651 11.3543 4.57484 10.3731 5.39151 9.55642C6.20817 8.73975 7.18873 8.33211 8.33317 8.3335H19.1144C19.67 8.3335 20.1998 8.43767 20.704 8.646C21.2082 8.85433 21.6505 9.14947 22.0311 9.53142L24.9998 12.5002H41.6665C42.8123 12.5002 43.7936 12.9085 44.6103 13.7252C45.4269 14.5418 45.8346 15.5224 45.8332 16.6668V37.5002C45.8332 38.646 45.4248 39.6272 44.6082 40.4439C43.7915 41.2606 42.811 41.6682 41.6665 41.6668H8.33317Z" fill="#160A5B"/>
</svg>
