<svg width="55" height="35" viewBox="0 0 55 35" fill="none" xmlns="http://www.w3.org/2000/svg">
<path fill-rule="evenodd" clip-rule="evenodd" d="M22 0H33C43.3703 0 48.5567 -2.6077e-07 51.777 2.56375C55 5.12531 55 9.25094 55 17.5C55 25.7491 55 29.8747 51.777 32.4362C48.5567 35 43.3703 35 33 35H22C11.6298 35 6.44325 35 3.223 32.4362C-3.27826e-07 29.8747 0 25.7491 0 17.5C0 9.25094 -3.27826e-07 5.12531 3.223 2.56375C6.44325 -2.6077e-07 11.6298 0 22 0ZM30.9375 10.9375C30.9375 10.5024 31.1548 10.0851 31.5416 9.7774C31.9284 9.46973 32.453 9.29688 33 9.29688H46.75C47.297 9.29688 47.8216 9.46973 48.2084 9.7774C48.5952 10.0851 48.8125 10.5024 48.8125 10.9375C48.8125 11.3726 48.5952 11.7899 48.2084 12.0976C47.8216 12.4053 47.297 12.5781 46.75 12.5781H33C32.453 12.5781 31.9284 12.4053 31.5416 12.0976C31.1548 11.7899 30.9375 11.3726 30.9375 10.9375ZM33.6875 17.5C33.6875 17.0649 33.9048 16.6476 34.2916 16.3399C34.6784 16.0322 35.203 15.8594 35.75 15.8594H46.75C47.297 15.8594 47.8216 16.0322 48.2084 16.3399C48.5952 16.6476 48.8125 17.0649 48.8125 17.5C48.8125 17.9351 48.5952 18.3524 48.2084 18.6601C47.8216 18.9678 47.297 19.1406 46.75 19.1406H35.75C35.203 19.1406 34.6784 18.9678 34.2916 18.6601C33.9048 18.3524 33.6875 17.9351 33.6875 17.5ZM36.4375 24.0625C36.4375 23.6274 36.6548 23.2101 37.0416 22.9024C37.4284 22.5947 37.953 22.4219 38.5 22.4219H46.75C47.297 22.4219 47.8216 22.5947 48.2084 22.9024C48.5952 23.2101 48.8125 23.6274 48.8125 24.0625C48.8125 24.4976 48.5952 24.9149 48.2084 25.2226C47.8216 25.5303 47.297 25.7031 46.75 25.7031H38.5C37.953 25.7031 37.4284 25.5303 37.0416 25.2226C36.6548 24.9149 36.4375 24.4976 36.4375 24.0625ZM24.75 10.9375C24.75 12.0978 24.1705 13.2106 23.1391 14.0311C22.1076 14.8516 20.7087 15.3125 19.25 15.3125C17.7913 15.3125 16.3924 14.8516 15.3609 14.0311C14.3295 13.2106 13.75 12.0978 13.75 10.9375C13.75 9.77718 14.3295 8.66438 15.3609 7.84391C16.3924 7.02344 17.7913 6.5625 19.25 6.5625C20.7087 6.5625 22.1076 7.02344 23.1391 7.84391C24.1705 8.66438 24.75 9.77718 24.75 10.9375ZM19.25 28.4375C30.25 28.4375 30.25 26.4797 30.25 24.0625C30.25 21.6453 25.3275 19.6875 19.25 19.6875C13.1725 19.6875 8.25 21.6453 8.25 24.0625C8.25 26.4797 8.25 28.4375 19.25 28.4375Z" fill="#160A5B"/>
</svg>
