<svg width="174" height="133" viewBox="0 0 174 133" fill="none" xmlns="http://www.w3.org/2000/svg">
<path d="M170.805 72.3707C175.054 69.1236 175.054 63.8504 170.805 60.6033L127.305 27.3533C123.057 24.1063 116.159 24.1063 111.911 27.3533C107.662 30.6004 107.662 35.8736 111.911 39.1207L136.855 58.1875H65.25C59.2348 58.1875 54.375 61.9021 54.375 66.5C54.375 71.0979 59.2348 74.8125 65.25 74.8125H136.855L111.911 93.8793C107.662 97.1264 107.662 102.4 111.911 105.647C116.159 108.894 123.057 108.894 127.305 105.647L170.805 72.3967V72.3707ZM54.375 24.9375C60.3902 24.9375 65.25 21.2229 65.25 16.625C65.25 12.0271 60.3902 8.3125 54.375 8.3125H32.625C14.6133 8.3125 0 19.4824 0 33.25V99.75C0 113.518 14.6133 124.688 32.625 124.688H54.375C60.3902 124.688 65.25 120.973 65.25 116.375C65.25 111.777 60.3902 108.062 54.375 108.062H32.625C26.6098 108.062 21.75 104.348 21.75 99.75V33.25C21.75 28.6521 26.6098 24.9375 32.625 24.9375H54.375Z" fill="white"/>
</svg>
