<svg width="33" height="33" viewBox="0 0 33 33" fill="none" xmlns="http://www.w3.org/2000/svg">
<path d="M16.9973 16.6144C17.7306 16.6144 18.3586 16.3565 18.8813 15.8408C19.404 15.325 19.6648 14.7058 19.664 13.983C19.664 13.2594 19.4026 12.6397 18.88 12.124C18.3573 11.6082 17.7297 11.3508 16.9973 11.3517C16.264 11.3517 15.636 11.6095 15.1133 12.1253C14.5906 12.641 14.3297 13.2603 14.3306 13.983C14.3306 14.7067 14.592 15.3264 15.1146 15.8421C15.6373 16.3579 16.2648 16.6153 16.9973 16.6144ZM16.9973 29.2779C16.8195 29.2779 16.6417 29.245 16.464 29.1793C16.2862 29.1135 16.1306 29.0258 15.9973 28.9161C12.7528 26.0874 10.3306 23.4613 8.73062 21.0378C7.13062 18.6143 6.33062 16.3504 6.33062 14.2462C6.33062 10.957 7.40306 8.33654 9.54795 6.38493C11.6928 4.43332 14.176 3.45752 16.9973 3.45752C19.8195 3.45752 22.3031 4.43332 24.448 6.38493C26.5928 8.33654 27.6648 10.957 27.664 14.2462C27.664 16.3513 26.864 18.6156 25.264 21.0391C23.664 23.4626 21.2417 26.0883 17.9973 28.9161C17.864 29.0258 17.7084 29.1135 17.5306 29.1793C17.3528 29.245 17.1751 29.2779 16.9973 29.2779Z" fill="#160A5B"/>
</svg>
