<svg width="55" height="35" viewBox="0 0 55 35" fill="none" xmlns="http://www.w3.org/2000/svg">
<path d="M5 35C3.625 35 2.4475 34.657 1.4675 33.971C0.487504 33.285 -0.00166242 32.4613 4.24448e-06 31.5V10.5C4.24448e-06 9.5375 0.490004 8.71325 1.47 8.02725C2.45 7.34125 3.62667 6.99884 5 7H12.875L16 4.63751C16.4583 4.28751 17.0108 4.01042 17.6575 3.80626C18.3042 3.60209 18.98 3.50001 19.685 3.50001H30C30.7083 3.50001 31.3025 3.66801 31.7825 4.00401C32.2625 4.34001 32.5017 4.75534 32.5 5.25V8.75C32.5 9.24584 32.74 9.66175 33.22 9.99775C33.7 10.3338 34.2933 10.5012 35 10.5H40V14C40 14.4958 40.24 14.9118 40.72 15.2478C41.2 15.5838 41.7933 15.7512 42.5 15.75H47.5C48.2083 15.75 48.8025 15.918 49.2825 16.254C49.7625 16.59 50.0017 17.0053 50 17.5V31.5C50 32.4625 49.51 33.2868 48.53 33.9728C47.55 34.6587 46.3733 35.0012 45 35H5ZM25 28.875C28.125 28.875 30.7817 28.1091 32.97 26.5773C35.1583 25.0454 36.2517 23.1863 36.25 21C36.25 18.8125 35.1558 16.9528 32.9675 15.421C30.7792 13.8892 28.1233 13.1238 25 13.125C21.875 13.125 19.2183 13.8909 17.03 15.4228C14.8417 16.9546 13.7483 18.8137 13.75 21C13.75 23.1875 14.8442 25.0472 17.0325 26.579C19.2208 28.1108 21.8767 28.8762 25 28.875ZM45 7H42.5C41.7917 7 41.1975 6.832 40.7175 6.496C40.2375 6.16 39.9983 5.74467 40 5.25C40 4.75417 40.24 4.33826 40.72 4.00226C41.2 3.66626 41.7933 3.49884 42.5 3.50001H45V1.75001C45 1.25417 45.24 0.838256 45.72 0.502256C46.2 0.166256 46.7933 -0.00116061 47.5 6.05537e-06C48.2083 6.05537e-06 48.8025 0.168006 49.2825 0.504006C49.7625 0.840006 50.0017 1.25534 50 1.75001V3.50001H52.5C53.2083 3.50001 53.8025 3.66801 54.2825 4.00401C54.7625 4.34001 55.0017 4.75534 55 5.25C55 5.74584 54.76 6.16175 54.28 6.49775C53.8 6.83375 53.2067 7.00117 52.5 7H50V8.75C50 9.24584 49.76 9.66175 49.28 9.99775C48.8 10.3338 48.2067 10.5012 47.5 10.5C46.7917 10.5 46.1975 10.332 45.7175 9.996C45.2375 9.66 44.9983 9.24467 45 8.75V7Z" fill="#160A5B"/>
</svg>
