<svg width="90" height="62" viewBox="0 0 90 62" fill="none" xmlns="http://www.w3.org/2000/svg">
<path d="M40.125 44.6271C40.875 44.1104 41.235 43.4861 41.205 42.7542C41.175 42.0222 40.7837 41.3979 40.0312 40.8813L29.4375 33.5833H71.25C72.3125 33.5833 73.2037 33.3353 73.9237 32.8393C74.6437 32.3433 75.0025 31.7302 75 31C75 30.2681 74.64 29.6541 73.92 29.1581C73.2 28.6621 72.31 28.415 71.25 28.4167H29.4375L40.125 21.0542C40.875 20.5375 41.25 19.9235 41.25 19.2123C41.25 18.501 40.875 17.8879 40.125 17.3729C39.375 16.8563 38.4837 16.5979 37.4512 16.5979C36.4187 16.5979 35.5287 16.8563 34.7812 17.3729L17.625 29.1917C17.25 29.45 16.9837 29.7299 16.8262 30.0313C16.6687 30.3327 16.5912 30.6556 16.5937 31C16.5937 31.3445 16.6725 31.6674 16.83 31.9688C16.9875 32.2702 17.2525 32.55 17.625 32.8083L34.875 44.6917C35.5625 45.1653 36.4212 45.4021 37.4512 45.4021C38.4812 45.4021 39.3725 45.1438 40.125 44.6271Z" fill="#160A5B"/>
</svg>
