<svg width="42" height="36" viewBox="0 0 42 36" fill="none" xmlns="http://www.w3.org/2000/svg">
<path d="M24.72 27.0025L25.125 26.9999C26.955 26.9999 27.918 27.6505 29.1045 29.1908L29.694 29.9725C30.1545 30.5575 30.4425 30.8018 30.804 30.9304C31.4535 31.1592 31.992 31.0461 33.9675 30.2309L34.572 29.9789C35.808 29.4595 36.651 29.1612 37.602 28.9568C37.8917 28.8947 38.1982 28.9338 38.4542 29.0655C38.7101 29.1971 38.8946 29.4105 38.967 29.6588C39.0394 29.907 38.9938 30.1698 38.8402 30.3892C38.6866 30.6086 38.4377 30.7667 38.148 30.8288C37.557 30.9548 36.99 31.1374 36.2475 31.4305L34.509 32.1466C32.157 33.0981 31.359 33.2125 29.9475 32.7124C29.01 32.3819 28.4775 31.9024 27.6975 30.8802L27.405 30.4894C26.502 29.2705 26.0475 28.9285 25.125 28.9285L24.888 28.9336C24.2385 28.9671 23.817 29.2216 21.015 31.0036C18.402 32.6674 16.4085 33.4606 13.875 33.4606C10.785 33.4606 7.87204 32.9746 5.14804 32.0014L9.47104 31.1451C10.887 31.4022 12.354 31.5321 13.8735 31.5321C15.8085 31.5321 17.4135 30.8931 19.674 29.4556L21.414 28.3551C23.3205 27.1671 23.745 27.0205 24.72 27.0025ZM34.167 4.1425C35.3721 5.17587 36.0491 6.57714 36.0491 8.03822C36.0491 9.49929 35.3721 10.9006 34.167 11.9339L32.613 13.2659C34.341 15.0685 34.278 16.9778 32.673 18.3586L28.1715 22.2184C28.0669 22.3078 27.9428 22.3788 27.8062 22.4272C27.6696 22.4755 27.5233 22.5004 27.3755 22.5002C27.2277 22.5001 27.0814 22.4751 26.9449 22.4265C26.8084 22.3779 26.6844 22.3067 26.58 22.2171C26.4756 22.1274 26.3929 22.021 26.3364 21.9039C26.28 21.7869 26.251 21.6614 26.2512 21.5347C26.2513 21.4081 26.2806 21.2827 26.3372 21.1657C26.3939 21.0487 26.4769 20.9424 26.5815 20.8529L31.0785 16.9971C31.806 16.3722 31.8915 15.5956 31.0185 14.6339L15.129 28.2548C14.6813 28.6382 14.1168 28.9059 13.5 29.0275L4.38004 30.8326C4.19398 30.8696 4 30.8654 3.81637 30.8203C3.63275 30.7753 3.46554 30.6909 3.33048 30.5751C3.19543 30.4594 3.09698 30.316 3.04442 30.1586C2.99185 30.0013 2.98691 29.835 3.03004 29.6755L5.13454 21.8584C5.27636 21.3297 5.58875 20.8458 6.03604 20.4621L25.0755 4.1425C25.6724 3.6309 26.381 3.22507 27.1608 2.94819C27.9406 2.67132 28.7765 2.52881 29.6205 2.52881C30.4646 2.52881 31.3005 2.67132 32.0803 2.94819C32.8601 3.22507 33.5702 3.6309 34.167 4.1425Z" fill="#160A5B"/>
</svg>
