<svg width="57" height="48" viewBox="0 0 57 48" fill="none" xmlns="http://www.w3.org/2000/svg">
<path d="M50.4179 39.3083C53.3435 36.3465 55.3783 32.8354 56.3502 29.0719C57.322 25.3085 57.2023 21.4035 56.0011 17.6873C54.8 13.971 52.5528 10.5529 49.4495 7.72192C46.3463 4.89099 42.4784 2.73059 38.173 1.42346C33.8676 0.116338 29.2514 -0.299049 24.7149 0.212439C20.1783 0.723928 15.8549 2.14724 12.1104 4.36199C8.36587 6.57673 5.31039 9.51773 3.20242 12.9362C1.09444 16.3547 -0.00399813 20.1501 1.09348e-05 24.0013C0.00154935 29.5999 2.34631 35.0192 6.62285 39.3083L6.58211 39.3374C6.72471 39.4814 6.88768 39.6048 7.03436 39.7471C7.2177 39.9236 7.41531 40.0899 7.60476 40.2613C8.17517 40.7824 8.76188 41.2829 9.3771 41.7526C9.56452 41.8966 9.75805 42.0303 9.94751 42.1674C10.5994 42.6405 11.2696 43.0896 11.9643 43.5078C12.0539 43.5592 12.1354 43.6261 12.2251 43.6792V43.6587C16.9963 46.4838 22.6882 48 28.5224 48C34.3567 48 40.0485 46.4838 44.8198 43.6587V43.6792C44.9094 43.6261 44.9889 43.5592 45.0805 43.5078C45.7732 43.0879 46.4454 42.6405 47.0973 42.1674C47.2868 42.0303 47.4803 41.8948 47.6677 41.7526C48.283 41.2812 48.8697 40.7824 49.4401 40.2613C49.6295 40.0899 49.8251 39.9236 50.0105 39.7471C50.1551 39.6048 50.3201 39.4814 50.4627 39.3357L50.4179 39.3083ZM28.5204 10.2885C30.3335 10.2885 32.1059 10.7409 33.6134 11.5884C35.121 12.436 36.296 13.6407 36.9898 15.0501C37.6837 16.4596 37.8652 18.0105 37.5115 19.5068C37.1578 21.003 36.2847 22.3774 35.0026 23.4562C33.7206 24.5349 32.0871 25.2696 30.3088 25.5672C28.5306 25.8648 26.6873 25.7121 25.0122 25.1283C23.3371 24.5445 21.9054 23.5558 20.8981 22.2873C19.8908 21.0189 19.3531 19.5275 19.3531 18.002C19.3531 15.9562 20.319 13.9943 22.0381 12.5477C23.7573 11.1012 26.0891 10.2885 28.5204 10.2885ZM12.2373 39.3083C12.2726 37.0576 13.3597 34.9091 15.2632 33.3276C17.1668 31.7462 19.7338 30.8589 22.4089 30.8577H34.6319C37.307 30.8589 39.874 31.7462 41.7775 33.3276C43.6811 34.9091 44.7681 37.0576 44.8035 39.3083C40.3356 42.6959 34.5346 44.5707 28.5204 44.5707C22.5061 44.5707 16.7051 42.6959 12.2373 39.3083Z" fill="#160A5B"/>
</svg>
