<svg width="55" height="35" viewBox="0 0 55 35" fill="none" xmlns="http://www.w3.org/2000/svg">
<path fill-rule="evenodd" clip-rule="evenodd" d="M12.9708 0H42.0292C45.5706 0 47.3397 1.82535e-07 48.7697 0.285244C50.118 0.558917 51.338 1.00695 52.3348 1.59453C53.3316 2.18212 54.0784 2.89342 54.5172 3.67317C55 4.51665 55 5.55963 55 7.64733V32.1538C55 33.6553 51.9903 34.4532 50.0867 33.4558C49.5526 33.1731 48.8522 33.0162 48.125 33.0162C47.3978 33.0162 46.6974 33.1731 46.1633 33.4558L44.6875 34.2293C43.7519 34.7248 42.5244 35 41.25 35C39.9756 35 38.7481 34.7248 37.8125 34.2293C36.8769 33.7337 35.6494 33.4585 34.375 33.4585C33.1006 33.4585 31.8731 33.7337 30.9375 34.2293C30.0019 34.7248 28.7744 35 27.5 35C26.2256 35 24.9981 34.7248 24.0625 34.2293C23.1269 33.7337 21.8994 33.4585 20.625 33.4585C19.3506 33.4585 18.1231 33.7337 17.1875 34.2293C16.2519 34.7248 15.0244 35 13.75 35C12.4756 35 11.2481 34.7248 10.3125 34.2293L8.83667 33.4558C8.3026 33.1731 7.60216 33.0162 6.875 33.0162C6.14784 33.0162 5.4474 33.1731 4.91333 33.4558C3.00972 34.4532 0 33.6553 0 32.1538V7.64733C0 5.55963 -4.55313e-08 4.5149 0.482778 3.67492C1.39944 2.0772 3.52306 0.824232 6.23028 0.285244C7.66028 1.82535e-07 9.42944 0 12.9708 0ZM12.2222 8.31232C11.6144 8.31232 11.0315 8.4506 10.6018 8.69673C10.172 8.94287 9.93056 9.2767 9.93056 9.62479C9.93056 9.97288 10.172 10.3067 10.6018 10.5528C11.0315 10.799 11.6144 10.9373 12.2222 10.9373H13.75C14.3578 10.9373 14.9407 10.799 15.3705 10.5528C15.8002 10.3067 16.0417 9.97288 16.0417 9.62479C16.0417 9.2767 15.8002 8.94287 15.3705 8.69673C14.9407 8.4506 14.3578 8.31232 13.75 8.31232H12.2222ZM22.9167 8.31232C22.3089 8.31232 21.726 8.4506 21.2962 8.69673C20.8664 8.94287 20.625 9.2767 20.625 9.62479C20.625 9.97288 20.8664 10.3067 21.2962 10.5528C21.726 10.799 22.3089 10.9373 22.9167 10.9373H42.7778C43.3856 10.9373 43.9685 10.799 44.3982 10.5528C44.828 10.3067 45.0694 9.97288 45.0694 9.62479C45.0694 9.2767 44.828 8.94287 44.3982 8.69673C43.9685 8.4506 43.3856 8.31232 42.7778 8.31232H22.9167ZM12.2222 14.4372C11.6144 14.4372 11.0315 14.5755 10.6018 14.8216C10.172 15.0677 9.93056 15.4016 9.93056 15.7497C9.93056 16.0977 10.172 16.4316 10.6018 16.6777C11.0315 16.9238 11.6144 17.0621 12.2222 17.0621H13.75C14.3578 17.0621 14.9407 16.9238 15.3705 16.6777C15.8002 16.4316 16.0417 16.0977 16.0417 15.7497C16.0417 15.4016 15.8002 15.0677 15.3705 14.8216C14.9407 14.5755 14.3578 14.4372 13.75 14.4372H12.2222ZM22.9167 14.4372C22.3089 14.4372 21.726 14.5755 21.2962 14.8216C20.8664 15.0677 20.625 15.4016 20.625 15.7497C20.625 16.0977 20.8664 16.4316 21.2962 16.6777C21.726 16.9238 22.3089 17.0621 22.9167 17.0621H42.7778C43.3856 17.0621 43.9685 16.9238 44.3982 16.6777C44.828 16.4316 45.0694 16.0977 45.0694 15.7497C45.0694 15.4016 44.828 15.0677 44.3982 14.8216C43.9685 14.5755 43.3856 14.4372 42.7778 14.4372H22.9167ZM12.2222 20.562C11.6144 20.562 11.0315 20.7003 10.6018 20.9465C10.172 21.1926 9.93056 21.5264 9.93056 21.8745C9.93056 22.2226 10.172 22.5564 10.6018 22.8026C11.0315 23.0487 11.6144 23.187 12.2222 23.187H13.75C14.3578 23.187 14.9407 23.0487 15.3705 22.8026C15.8002 22.5564 16.0417 22.2226 16.0417 21.8745C16.0417 21.5264 15.8002 21.1926 15.3705 20.9465C14.9407 20.7003 14.3578 20.562 13.75 20.562H12.2222ZM22.9167 20.562C22.3089 20.562 21.726 20.7003 21.2962 20.9465C20.8664 21.1926 20.625 21.5264 20.625 21.8745C20.625 22.2226 20.8664 22.5564 21.2962 22.8026C21.726 23.0487 22.3089 23.187 22.9167 23.187H42.7778C43.3856 23.187 43.9685 23.0487 44.3982 22.8026C44.828 22.5564 45.0694 22.2226 45.0694 21.8745C45.0694 21.5264 44.828 21.1926 44.3982 20.9465C43.9685 20.7003 43.3856 20.562 42.7778 20.562H22.9167Z" fill="#160A5B"/>
</svg>
